<svg width="102" height="104" viewBox="0 0 102 104" fill="none" xmlns="http://www.w3.org/2000/svg">
<ellipse cx="51" cy="52" rx="51" ry="52" fill="#379860"/>
<path d="M54.46 70C54.1084 70.6062 53.6037 71.1093 52.9965 71.4591C52.3892 71.8088 51.7008 71.9929 51 71.9929C50.2992 71.9929 49.6108 71.8088 49.0035 71.4591C48.3963 71.1093 47.8916 70.6062 47.54 70M63 44C63 40.8174 61.7357 37.7652 59.4853 35.5147C57.2348 33.2643 54.1826 32 51 32C47.8174 32 44.7652 33.2643 42.5147 35.5147C40.2643 37.7652 39 40.8174 39 44C39 58 33 62 33 62H69C69 62 63 58 63 44Z" stroke="white" stroke-width="4" stroke-linecap="round" stroke-linejoin="round"/>
</svg>
