<svg width="102" height="104" viewBox="0 0 102 104" fill="none" xmlns="http://www.w3.org/2000/svg">
<ellipse cx="51" cy="52" rx="51" ry="52" fill="#379860"/>
<path d="M67 70V66C67 63.8783 66.1571 61.8434 64.6569 60.3431C63.1566 58.8429 61.1217 58 59 58H43C40.8783 58 38.8434 58.8429 37.3431 60.3431C35.8429 61.8434 35 63.8783 35 66V70M59 42C59 46.4183 55.4183 50 51 50C46.5817 50 43 46.4183 43 42C43 37.5817 46.5817 34 51 34C55.4183 34 59 37.5817 59 42Z" stroke="white" stroke-width="4" stroke-linecap="round" stroke-linejoin="round"/>
</svg>
