<svg width="102" height="104" viewBox="0 0 102 104" fill="none" xmlns="http://www.w3.org/2000/svg">
<ellipse cx="51" cy="52" rx="51" ry="52" fill="#379860"/>
<path d="M59 70V38C59 36.9391 58.5786 35.9217 57.8284 35.1716C57.0783 34.4214 56.0609 34 55 34H47C45.9391 34 44.9217 34.4214 44.1716 35.1716C43.4214 35.9217 43 36.9391 43 38V70M35 42H67C69.2091 42 71 43.7909 71 46V66C71 68.2091 69.2091 70 67 70H35C32.7909 70 31 68.2091 31 66V46C31 43.7909 32.7909 42 35 42Z" stroke="white" stroke-width="4" stroke-linecap="round" stroke-linejoin="round"/>
</svg>
