<svg width="25" height="25" viewBox="0 0 25 25" fill="none" xmlns="http://www.w3.org/2000/svg">
<g id="language">
<path id="icon" d="M12.5 22.5C11.1333 22.5 9.84167 22.2375 8.625 21.7125C7.40833 21.1875 6.34583 20.4708 5.4375 19.5625C4.52917 18.6542 3.8125 17.5917 3.2875 16.375C2.7625 15.1583 2.5 13.8667 2.5 12.5C2.5 11.1167 2.7625 9.82083 3.2875 8.6125C3.8125 7.40417 4.52917 6.34583 5.4375 5.4375C6.34583 4.52917 7.40833 3.8125 8.625 3.2875C9.84167 2.7625 11.1333 2.5 12.5 2.5C13.8833 2.5 15.1792 2.7625 16.3875 3.2875C17.5958 3.8125 18.6542 4.52917 19.5625 5.4375C20.4708 6.34583 21.1875 7.40417 21.7125 8.6125C22.2375 9.82083 22.5 11.1167 22.5 12.5C22.5 13.8667 22.2375 15.1583 21.7125 16.375C21.1875 17.5917 20.4708 18.6542 19.5625 19.5625C18.6542 20.4708 17.5958 21.1875 16.3875 21.7125C15.1792 22.2375 13.8833 22.5 12.5 22.5ZM12.5 20.45C12.9333 19.85 13.3083 19.225 13.625 18.575C13.9417 17.925 14.2 17.2333 14.4 16.5H10.6C10.8 17.2333 11.0583 17.925 11.375 18.575C11.6917 19.225 12.0667 19.85 12.5 20.45ZM9.9 20.05C9.6 19.5 9.3375 18.9292 9.1125 18.3375C8.8875 17.7458 8.7 17.1333 8.55 16.5H5.6C6.08333 17.3333 6.6875 18.0583 7.4125 18.675C8.1375 19.2917 8.96667 19.75 9.9 20.05ZM15.1 20.05C16.0333 19.75 16.8625 19.2917 17.5875 18.675C18.3125 18.0583 18.9167 17.3333 19.4 16.5H16.45C16.3 17.1333 16.1125 17.7458 15.8875 18.3375C15.6625 18.9292 15.4 19.5 15.1 20.05ZM4.75 14.5H8.15C8.1 14.1667 8.0625 13.8375 8.0375 13.5125C8.0125 13.1875 8 12.85 8 12.5C8 12.15 8.0125 11.8125 8.0375 11.4875C8.0625 11.1625 8.1 10.8333 8.15 10.5H4.75C4.66667 10.8333 4.60417 11.1625 4.5625 11.4875C4.52083 11.8125 4.5 12.15 4.5 12.5C4.5 12.85 4.52083 13.1875 4.5625 13.5125C4.60417 13.8375 4.66667 14.1667 4.75 14.5ZM10.15 14.5H14.85C14.9 14.1667 14.9375 13.8375 14.9625 13.5125C14.9875 13.1875 15 12.85 15 12.5C15 12.15 14.9875 11.8125 14.9625 11.4875C14.9375 11.1625 14.9 10.8333 14.85 10.5H10.15C10.1 10.8333 10.0625 11.1625 10.0375 11.4875C10.0125 11.8125 10 12.15 10 12.5C10 12.85 10.0125 13.1875 10.0375 13.5125C10.0625 13.8375 10.1 14.1667 10.15 14.5ZM16.85 14.5H20.25C20.3333 14.1667 20.3958 13.8375 20.4375 13.5125C20.4792 13.1875 20.5 12.85 20.5 12.5C20.5 12.15 20.4792 11.8125 20.4375 11.4875C20.3958 11.1625 20.3333 10.8333 20.25 10.5H16.85C16.9 10.8333 16.9375 11.1625 16.9625 11.4875C16.9875 11.8125 17 12.15 17 12.5C17 12.85 16.9875 13.1875 16.9625 13.5125C16.9375 13.8375 16.9 14.1667 16.85 14.5ZM16.45 8.5H19.4C18.9167 7.66667 18.3125 6.94167 17.5875 6.325C16.8625 5.70833 16.0333 5.25 15.1 4.95C15.4 5.5 15.6625 6.07083 15.8875 6.6625C16.1125 7.25417 16.3 7.86667 16.45 8.5ZM10.6 8.5H14.4C14.2 7.76667 13.9417 7.075 13.625 6.425C13.3083 5.775 12.9333 5.15 12.5 4.55C12.0667 5.15 11.6917 5.775 11.375 6.425C11.0583 7.075 10.8 7.76667 10.6 8.5ZM5.6 8.5H8.55C8.7 7.86667 8.8875 7.25417 9.1125 6.6625C9.3375 6.07083 9.6 5.5 9.9 4.95C8.96667 5.25 8.1375 5.70833 7.4125 6.325C6.6875 6.94167 6.08333 7.66667 5.6 8.5Z" fill="#545454"/>
</g>
</svg>
