<svg width="42" height="42" viewBox="0 0 42 42" fill="none" xmlns="http://www.w3.org/2000/svg">
<g id="mail">
<path id="icon" d="M7 35C6.0375 35 5.21354 34.6573 4.52813 33.9719C3.84271 33.2865 3.5 32.4625 3.5 31.5V10.5C3.5 9.5375 3.84271 8.71354 4.52813 8.02813C5.21354 7.34271 6.0375 7 7 7H35C35.9625 7 36.7865 7.34271 37.4719 8.02813C38.1573 8.71354 38.5 9.5375 38.5 10.5V31.5C38.5 32.4625 38.1573 33.2865 37.4719 33.9719C36.7865 34.6573 35.9625 35 35 35H7ZM21 22.75L7 14V31.5H35V14L21 22.75ZM21 19.25L35 10.5H7L21 19.25ZM7 14V10.5V31.5V14Z" fill="#379860"/>
</g>
</svg>
