<svg width="39" height="39" viewBox="0 0 39 39" fill="none" xmlns="http://www.w3.org/2000/svg">
<g id="Phone">
<path id="Icon" d="M35.75 27.495V32.37C35.7519 32.8226 35.6591 33.2706 35.4778 33.6852C35.2965 34.0999 35.0306 34.4721 34.6971 34.7781C34.3637 35.084 33.9699 35.3169 33.5412 35.4619C33.1125 35.6069 32.6582 35.6608 32.2075 35.62C27.2071 35.0767 22.4039 33.368 18.1838 30.6313C14.2575 28.1364 10.9287 24.8076 8.43376 20.8813C5.68748 16.642 3.97841 11.8154 3.44501 6.79254C3.40441 6.34317 3.45781 5.89027 3.60183 5.46268C3.74584 5.03508 3.97732 4.64216 4.28151 4.30892C4.5857 3.97568 4.95595 3.70944 5.36867 3.52713C5.7814 3.34483 6.22757 3.25046 6.67876 3.25004H11.5538C12.3424 3.24227 13.1069 3.52154 13.7049 4.03578C14.3028 4.55001 14.6934 5.26414 14.8038 6.04504C15.0095 7.60514 15.3911 9.13697 15.9413 10.6113C16.1599 11.1929 16.2072 11.825 16.0776 12.4327C15.948 13.0404 15.6469 13.5982 15.21 14.04L13.1463 16.1038C15.4595 20.172 18.828 23.5405 22.8963 25.8538L24.96 23.79C25.4018 23.3531 25.9596 23.052 26.5673 22.9224C27.175 22.7928 27.8071 22.8402 28.3888 23.0588C29.8631 23.6089 31.3949 23.9905 32.955 24.1963C33.7444 24.3076 34.4653 24.7052 34.9806 25.3135C35.496 25.9217 35.7698 26.6981 35.75 27.495Z" stroke="#379860" stroke-width="4" stroke-linecap="round" stroke-linejoin="round"/>
</g>
</svg>
