<svg width="14" height="14" viewBox="0 0 14 14" fill="none" xmlns="http://www.w3.org/2000/svg">
<g id="Star" clip-path="url(#clip0_450_458)">
<path id="icon" fill-rule="evenodd" clip-rule="evenodd" d="M6.99997 0.276855C6.80154 0.276855 6.60725 0.333623 6.44004 0.440458C6.27496 0.545928 6.14307 0.695846 6.05949 0.872901L4.47193 4.07799C4.46881 4.08429 4.46582 4.09065 4.46297 4.09708L4.45973 4.10109L4.45493 4.10296C4.44884 4.10363 4.44276 4.10442 4.4367 4.10532L0.941118 4.62318C0.747914 4.64197 0.563675 4.71447 0.40936 4.83267C0.249688 4.95498 0.128906 5.12096 0.0616453 5.31051C-0.00561486 5.50006 -0.016468 5.70505 0.0304011 5.90065C0.0770887 6.09548 0.179058 6.27267 0.324024 6.41092L2.8828 8.87974L2.88863 8.88527C2.89228 8.88869 2.89503 8.89296 2.89661 8.89771C2.89819 8.90245 2.89856 8.90752 2.89768 8.91244L2.28738 12.4841C2.25388 12.6775 2.27509 12.8773 2.3489 13.0591C2.42281 13.2413 2.54637 13.399 2.7055 13.5144C2.86464 13.6297 3.05296 13.6981 3.24904 13.7117C3.44473 13.7253 3.64031 13.6838 3.81361 13.592L3.81466 13.5914L6.96414 11.9269C6.97543 11.922 6.98764 11.9194 6.99999 11.9194C7.01234 11.9194 7.02454 11.922 7.03584 11.9269L10.1853 13.5914C10.3587 13.6835 10.5551 13.7254 10.7509 13.7117C10.947 13.6981 11.1353 13.6297 11.2945 13.5144C11.4536 13.399 11.5772 13.2413 11.6511 13.0591C11.7249 12.8773 11.7462 12.6785 11.7128 12.4852L11.7126 12.4841L11.1029 8.9157L11.1023 8.91244C11.1014 8.90752 11.1018 8.90245 11.1034 8.89771C11.1049 8.89297 11.1077 8.88869 11.1113 8.88527L11.1172 8.87974L13.676 6.41089C13.8209 6.27264 13.9229 6.09547 13.9696 5.90065C14.0164 5.70505 14.0056 5.50006 13.9383 5.31051C13.8711 5.12096 13.7503 4.95498 13.5906 4.83267C13.4363 4.71447 13.2521 4.64197 13.0589 4.62318L9.56325 4.10532C9.55719 4.10442 9.55111 4.10363 9.54502 4.10296L9.54021 4.10109L9.53698 4.09708C9.53413 4.09065 9.53114 4.08429 9.52802 4.07799L7.94045 0.872887C7.85687 0.695839 7.72498 0.545925 7.55991 0.440458C7.39269 0.333623 7.1984 0.276855 6.99997 0.276855Z" fill="#E5B340"/>
</g>
<defs>
<clipPath id="clip0_450_458">
<rect width="14" height="14" fill="white"/>
</clipPath>
</defs>
</svg>
